<?xml version="1.0" encoding="UTF-8"?>
<svg version="1.1" xmlns="http://www.w3.org/2000/svg" width="500" height="500">
<path d="M0 0 C14.60328353 6.94085476 27.5214798 10.18628465 43.32421875 4.85546875 C47.87265087 2.99780421 52.16618979 0.74561145 56.51245117 -1.53735352 C78.80335985 -12.9409469 106.13849886 -13.83229425 129.76171875 -6.29296875 C140.99223639 -2.49533134 150.40284828 3.23121125 159.9453125 10.265625 C166.48033738 14.9122823 173.69037854 17.33320871 181.7578125 16.453125 C187.48484602 15.31663197 191.79026582 12.88546801 196.5703125 9.578125 C212.8409602 -1.64656234 231.27112472 -4.43934194 250.59375 -2.078125 C269.63254579 1.5157151 285.99062835 11.60462681 297.7265625 27.04296875 C305.70847083 38.96331869 310.71622813 52.14373968 311.7578125 66.453125 C311.83902344 67.42958984 311.83902344 67.42958984 311.921875 68.42578125 C312.74601308 87.86794778 305.00282816 106.13414748 292.4453125 120.640625 C279.96779498 133.89405538 266.42390134 139.63989347 249.2019043 144.25 C242.66613625 146.05081205 237.21063682 148.34271713 231.7578125 152.453125 C230.8709375 153.030625 229.9840625 153.608125 229.0703125 154.203125 C221.38912341 161.67671438 217.08626118 170.84699755 214.1105957 180.9753418 C206.01920358 208.36285252 189.36608194 228.28483185 164.6640625 242.1953125 C142.79854644 253.76101968 116.52053276 256.00141957 92.82324219 249.09472656 C76.31018231 243.96513775 62.92338812 235.60159011 50.7578125 223.453125 C49.95472656 222.66164063 49.15164062 221.87015625 48.32421875 221.0546875 C43.29024351 215.80260242 39.62290636 210.18265494 35.99584961 203.9309082 C28.40618419 190.87082371 19.75536033 181.77159568 4.8203125 177.640625 C3.8096875 177.57875 2.7990625 177.516875 1.7578125 177.453125 C0.96761719 177.39125 0.17742187 177.329375 -0.63671875 177.265625 C-8.77185659 176.90950405 -16.10821339 178.56123246 -23.9453125 180.48046875 C-39.39809622 184.13901783 -55.96766055 183.52869484 -71.2421875 179.453125 C-72.22960937 179.19789063 -73.21703125 178.94265625 -74.234375 178.6796875 C-97.42987711 171.82789961 -117.17141955 155.7503651 -129.359375 134.9765625 C-142.27014599 110.81574209 -146.47243964 84.06008311 -138.65625 57.45898438 C-133.45112614 40.83150537 -124.57754688 27.61553858 -112.2421875 15.453125 C-111.50355469 14.70417969 -110.76492187 13.95523438 -110.00390625 13.18359375 C-99.72168303 3.36610378 -86.60505946 -3.06384699 -73.2421875 -7.546875 C-72.22898437 -7.8871875 -71.21578125 -8.2275 -70.171875 -8.578125 C-46.30116286 -15.03937039 -21.80539965 -10.40354007 0 0 Z " fill="#8F4632" transform="translate(157.2421875,162.546875)"/>
<path d="M0 0 C16.50411261 5.76950491 27.08350689 21.65754406 35.625 36.05078125 C36.305625 37.01564453 36.305625 37.01564453 37 38 C37.66 38 38.32 38 39 38 C40.86583172 30.45186259 41.59354874 23.12662645 42.03515625 15.37695312 C42.54878808 8.65612913 42.54878808 8.65612913 44.7890625 5.3984375 C47.24633303 3.84419218 48.60878984 3.4325493 51.5 3.4375 C52.2528125 3.41558594 53.005625 3.39367187 53.78125 3.37109375 C57.09786213 4.31118979 58.10889881 6.18186454 60 9 C60.51416016 11.76953125 60.51416016 11.76953125 60.5390625 14.8125 C60.56097656 15.9569458 60.58289063 17.1013916 60.60546875 18.28051758 C60.61191406 19.50794678 60.61835938 20.73537598 60.625 22 C60.67527463 24.60816171 60.73009976 27.21623898 60.7890625 29.82421875 C60.80269836 30.49337814 60.81633423 31.16253754 60.8303833 31.85197449 C60.9940377 39.18887282 61.47650624 46.49298583 62 53.8125 C62.08330566 55.01455078 62.16661133 56.21660156 62.25244141 57.45507812 C62.73782405 64.2502727 62.73782405 64.2502727 63.546875 71.01171875 C64.29910524 76.64678208 64.22426094 82.32453786 64.25 88 C64.270625 89.13695312 64.29125 90.27390625 64.3125 91.4453125 C64.34649824 98.77193282 64.21555187 105.22584446 59.24609375 111.05859375 C58.64925781 111.51363281 58.05242187 111.96867187 57.4375 112.4375 C56.83808594 112.91058594 56.23867188 113.38367188 55.62109375 113.87109375 C50.50160497 117.43623172 43.98433748 116.46639732 38 116 C32.03487294 114.3865576 28.44298894 111.00798392 25 106 C23.7511574 102.4414647 23.85864359 98.91551405 23.82421875 95.171875 C23.80449406 93.808412 23.78344905 92.44496761 23.76123047 91.08154297 C23.74452301 90.01924469 23.74452301 90.01924469 23.72747803 88.93548584 C23.3930291 70.65210753 22.11004647 50.32715954 9 36 C8.01 36 7.02 36 6 36 C5.15819682 50.96538991 9.01362396 63.72895448 13.94921875 77.6953125 C15.78638934 83.47317986 16.20492352 89.02788662 16.25 95.0625 C16.270625 95.75666016 16.29125 96.45082031 16.3125 97.16601562 C16.34666037 101.66237369 15.73787134 104.42121104 13 108 C6.23218371 114.09103467 -1.26663026 113.67706716 -9.92382812 113.2265625 C-15.26799497 112.64337967 -19.80433054 110.3609349 -23.453125 106.4375 C-27.37404126 100.91508273 -27.68171599 95.51264697 -27 89 C-25.74127204 82.95357605 -23.88184055 77.04094081 -22.125 71.125 C-17.46949638 55.27944106 -14.79009784 40.42624572 -13.7890625 23.890625 C-12.64404311 6.55740039 -12.64404311 6.55740039 -9.3125 1.375 C-5.86818766 -0.6729695 -3.98125848 -0.57792462 0 0 Z " fill="#FAFAF0" transform="translate(372,171)"/>
<path d="M0 0 C4.25075681 1.79476399 6.13199415 3.81423404 8 8 C8.38219185 11.70811985 8.27664614 15.38651404 8.1875 19.109375 C8.17614014 20.19075745 8.16478027 21.27213989 8.15307617 22.3862915 C8.10416574 27.00242147 8.01999773 31.61774739 7.93847656 36.23339844 C7.88395931 39.6086859 7.84783476 42.9838407 7.8125 46.359375 C7.77515747 47.90670319 7.77515747 47.90670319 7.73706055 49.48529053 C7.67257563 55.889875 8.53230389 61.0762774 11 67 C12.98 67 14.96 67 17 67 C19.49904034 59.68138186 21.41176477 52.51376216 22.5625 44.875 C22.69398438 44.01696777 22.82546875 43.15893555 22.9609375 42.27490234 C24.02470318 34.85674853 24.43872254 27.4708396 24.53344727 19.97998047 C24.68548978 13.66806165 25.76903352 9.35490906 30.25 4.625 C33.82682275 2.51142292 35.90474201 2.41496314 40 3 C44.57366818 5.5986751 46.528863 9.07211833 48 14 C48.42716932 17.2604663 48.46436556 20.48800447 48.4765625 23.7734375 C48.49214203 24.69661774 48.50772156 25.61979797 48.52377319 26.57095337 C48.57103216 29.50562701 48.59894174 32.44006838 48.625 35.375 C48.66171605 38.30262164 48.70257834 41.23011849 48.74765015 44.15762329 C48.77446744 45.9729581 48.79598948 47.78838205 48.81118774 49.60385132 C48.87083904 54.47271964 49.18211673 59.22314438 49.77145386 64.05651855 C51.72546724 80.67280757 50.56100272 99.83154575 41 114 C35.58161847 120.29858275 28.87513862 124.61742186 20.515625 125.2734375 C16.66141369 125.31276619 12.84912294 125.19484197 9 125 C7.9171875 124.96777344 6.834375 124.93554688 5.71875 124.90234375 C-5.83886849 124.32148406 -14.13186003 120.57611167 -22 112 C-29.78482856 101.48055744 -29.0308187 88.45188956 -28 76 C-27.05414868 69.98200771 -25.40478522 64.16549312 -23.67578125 58.33251953 C-22.58934032 54.5825713 -21.67542821 50.79224387 -20.75 47 C-19 40 -19 40 -18.46118164 38.15161133 C-17.89888426 35.52825144 -17.85481897 33.06963186 -17.82421875 30.38671875 C-17.80037109 29.30326172 -17.77652344 28.21980469 -17.75195312 27.10351562 C-17.70920903 24.83807833 -17.67783705 22.57239606 -17.65820312 20.30664062 C-17.45136085 12.1916891 -16.34720202 7.62613552 -10.75 1.5625 C-7.05127824 -0.53904645 -4.16010286 -0.69194409 0 0 Z " fill="#FBFBEF" transform="translate(160,171)"/>
<path d="M0 0 C2.30284291 0.58032078 2.30284291 0.58032078 5.125 -0.625 C16.64115447 -1.37471763 26.47154564 -1.26207739 35.9375 6.125 C42.37259228 12.13513335 46.07816116 19.57554879 46.4609375 28.38671875 C46.82825519 51.25274658 46.82825519 51.25274658 40.37109375 58.28515625 C38.6833215 59.77561066 36.96131623 61.07691439 35.125 62.375 C34.465 63.035 33.805 63.695 33.125 64.375 C33.82625 64.72691406 34.5275 65.07882812 35.25 65.44140625 C46.43699885 71.26290157 54.99894813 77.9968444 59.125 90.375 C60.18313953 101.83313953 60.18313953 101.83313953 56.9375 106.5625 C51.95768438 109.77171451 48.12468675 110.66816063 42.1875 110.6875 C41.00285156 110.70425781 39.81820312 110.72101563 38.59765625 110.73828125 C33.55892775 110.21117017 30.44596354 108.71443855 26.890625 105.109375 C24.88144205 101.99780849 23.91459076 99.17822812 22.875 95.625 C21.00651366 89.60818663 18.725939 83.89698508 16.0625 78.1875 C15.73411133 77.46916992 15.40572266 76.75083984 15.06738281 76.01074219 C13.22165278 72.13304962 11.43613975 69.22892224 8.125 66.375 C9.47092231 70.05857685 10.81357607 73.69005272 12.4375 77.26171875 C15.55134626 84.17056514 17.65959188 89.85046922 15.578125 97.34375 C14.13578771 101.12587889 12.31997726 103.91030326 9.125 106.375 C0.92513068 109.82295728 -10.59803445 110.22160936 -19.01171875 107.27734375 C-23.86840007 104.26700409 -26.51101675 101.01279743 -27.875 95.375 C-28.47653843 88.07099577 -27.71349467 82.01725219 -25.38598633 75.10473633 C-19.9193299 58.65460213 -20.35001697 42.58354885 -20.87109375 25.42260742 C-20.89527878 24.42393646 -20.91946381 23.4252655 -20.94438171 22.39633179 C-20.99297051 20.51609814 -21.06008127 18.63621188 -21.14949036 16.75747681 C-21.30854235 10.75005008 -20.28013375 6.39017686 -16.875 1.375 C-11.95614569 -3.26277692 -6.03565921 -1.31209983 0 0 Z " fill="#FAFAEF" transform="translate(239.875,215.625)"/>
<path d="M0 0 C8.02761588 5.2455261 8.66449726 15.57762201 10.74609375 24.359375 C12.92903783 33.27694494 15.91900796 41.85990935 19 50.5 C30.88666492 83.83402392 30.88666492 83.83402392 29 95 C26.64465564 99.89186906 23.2826542 102.81078942 19 106 C13.15219658 107.94926781 6.47788508 107.78007493 0.625 105.9375 C-6.25802803 100.85716979 -8.59437083 96.26978492 -10 88 C-13.56486435 70.29192384 -20.57071398 51.76461815 -36 41 C-36.99 41 -37.98 41 -39 41 C-37.49770405 55.27181155 -27.88239517 68.70782195 -20.5625 80.6875 C-16.05697263 88.19245777 -13.88313832 94.18198746 -15 103 C-16.04361757 106.7778956 -17.72330988 109.25847661 -21.19921875 111.27734375 C-23.44028241 112.29141603 -25.68597718 113.16909605 -28 114 C-28.99 114.495 -28.99 114.495 -30 115 C-45.87638641 116.17105148 -45.87638641 116.17105148 -52 111 C-55.44154292 106.56222097 -57.15114125 103.1428703 -57.05004883 97.54223633 C-57.03706253 96.63891068 -57.02407623 95.73558502 -57.01069641 94.80488586 C-56.99298691 93.82384384 -56.9752774 92.84280182 -56.95703125 91.83203125 C-56.93457967 89.71810901 -56.91313149 87.60417592 -56.89257812 85.49023438 C-56.85604251 82.18678581 -56.81381091 78.88390929 -56.75317383 75.58081055 C-56.46461891 59.06513685 -56.71821816 41.84534551 -62 26 C-62.55617291 20.42238027 -62.9860487 15.65401718 -60.0625 10.75 C-55.82397057 8.32798318 -52.76910967 8.19373904 -48 9 C-36.39463056 12.18725817 -27.07900894 19.50354759 -18.59057617 27.73632812 C-15.26337904 30.94857713 -11.92310716 33.5429269 -8 36 C-8.30681865 32.72860758 -8.62143282 29.45801079 -8.9375 26.1875 C-9.06801758 24.7943457 -9.06801758 24.7943457 -9.20117188 23.37304688 C-9.33168945 22.0340332 -9.33168945 22.0340332 -9.46484375 20.66796875 C-9.543396 19.84578857 -9.62194824 19.0236084 -9.70288086 18.17651367 C-9.95551045 15.82512578 -9.95551045 15.82512578 -11 13 C-11.39479869 9.93749013 -11.48532071 7.0553145 -11 4 C-7.77123438 0.10648852 -4.96361941 -0.8272699 0 0 Z " fill="#FBFAED" transform="translate(100,201)"/>
<path d="M0 0 C0.7321875 -0.02191406 1.464375 -0.04382813 2.21875 -0.06640625 C5.81237813 0.92430287 7.20790838 2.64597232 9.5 5.5625 C10.7386837 8.59351595 11.51581892 11.70331307 12.3125 14.875 C14.76320512 23.78179407 18.12023933 31.59670947 22.49755859 39.70410156 C36.59105984 65.83165429 36.59105984 65.83165429 34.5 77.5625 C32.45084587 81.58762418 30.31575088 84.19366137 26.5 86.5625 C23.96658577 87.25576538 21.57519915 87.80757294 19 88.25 C18.29383545 88.3730249 17.5876709 88.4960498 16.86010742 88.62280273 C4.31936626 90.67585142 4.31936626 90.67585142 -1.5 89.5625 C-4.34993542 87.352346 -5.08557996 86.62707674 -6.5 83.5625 C-6.81453125 82.90507812 -7.1290625 82.24765625 -7.453125 81.5703125 C-10.83862428 72.67568257 -10.42526686 61.57673461 -8.9921875 52.26171875 C-8.29526177 47.02371347 -8.35564385 41.84027707 -8.375 36.5625 C-8.37113281 35.50804687 -8.36726563 34.45359375 -8.36328125 33.3671875 C-8.37002403 27.98645148 -8.63371938 22.88487562 -9.5 17.5625 C-9.67967692 15.33707302 -9.806335 13.10661245 -9.875 10.875 C-9.92398437 9.77800781 -9.97296875 8.68101562 -10.0234375 7.55078125 C-9.5 4.5625 -9.5 4.5625 -7.2578125 2.203125 C-4.52087804 0.57492036 -3.1340536 -0.0055177 0 0 Z " fill="#FAFAEF" transform="translate(303.5,197.4375)"/>
<path d="M0 0 C5.63117881 3.88819489 9.44931754 8.30884706 11.625 14.8125 C12.55828001 20.74401297 11.78164312 26.65280427 8.625 31.8125 C4.05651833 36.93565384 -0.54024296 40.33257926 -7.5 41.0234375 C-14.08656824 41.31271246 -18.9179025 39.86960489 -24.0625 35.5625 C-29.22077365 29.42833674 -31.02505109 25.48457644 -30.6953125 17.4609375 C-29.93135837 11.14434114 -27.32912062 6.88588806 -22.375 2.8125 C-15.49438629 -1.98355421 -7.91223939 -2.78393608 0 0 Z " fill="#C56718" transform="translate(182.375,118.1875)"/>
<path d="M0 0 C4.44964592 3.05802359 6.97962713 6.68888139 8.6875 11.8125 C9.19498917 18.02924229 9.4594833 23.58039413 5.6875 28.8125 C0.61237141 34.0129404 -3.76898282 36.82866989 -11.125 37.1875 C-16.27938345 37.07227533 -20.11876245 35.81218728 -24.3125 32.8125 C-28.96369829 27.91650179 -30.86986334 23.56270907 -31.3125 16.8125 C-30.85128377 11.02167405 -29.25593382 6.55044552 -25.20703125 2.32421875 C-17.42761291 -3.88327588 -8.62365047 -4.90958289 0 0 Z " fill="#2D0A5B" transform="translate(427.3125,334.1875)"/>
<path d="M0 0 C0.86367188 -0.01675781 1.72734375 -0.03351563 2.6171875 -0.05078125 C5.55596692 0.37492979 6.92333799 1.37196534 9.125 3.3125 C9.455 2.3225 9.785 1.3325 10.125 0.3125 C11.445 0.3125 12.765 0.3125 14.125 0.3125 C14.125 8.2325 14.125 16.1525 14.125 24.3125 C12.475 24.3125 10.825 24.3125 9.125 24.3125 C8.795 23.6525 8.465 22.9925 8.125 22.3125 C7.609375 22.6425 7.09375 22.9725 6.5625 23.3125 C2.31870947 25.05354227 -1.4014608 24.91531149 -5.625 23.1875 C-9.48984395 19.9667967 -10.69597213 16.74472297 -11.3125 11.8125 C-10.47016878 5.07385028 -6.90214827 0.03072173 0 0 Z " fill="#EEE9E1" transform="translate(270.875,367.6875)"/>
<path d="M0 0 C0.99 0 1.98 0 3 0 C4.51314319 2.91002834 6.00814417 5.829009 7.5 8.75 C7.92925781 9.575 8.35851562 10.4 8.80078125 11.25 C9.40986328 12.44882812 9.40986328 12.44882812 10.03125 13.671875 C10.40830078 14.4050293 10.78535156 15.13818359 11.17382812 15.89355469 C12 18 12 18 12 22 C11.01 22.33 10.02 22.66 9 23 C8.34 22.67 7.68 22.34 7 22 C6.401875 22.804375 5.80375 23.60875 5.1875 24.4375 C2.24832354 27.88053529 0.61026298 27.95078524 -3.875 28.3125 C-6.98121698 28.26120467 -8.01098887 27.99365088 -10.8125 26.375 C-14.0592926 22.84991089 -15.74316387 19.76116206 -16.4375 15 C-15.87492911 11.14237107 -14.40984263 9.02951645 -12 6 C-8.91111478 3.94074319 -8.29064073 3.7609626 -4.8125 3.875 C-2.9253125 3.936875 -2.9253125 3.936875 -1 4 C-0.67 2.68 -0.34 1.36 0 0 Z " fill="#F0EDE6" transform="translate(333,352)"/>
<path d="M0 0 C3.04021883 2.28016412 4.98435493 4.23722153 5.68359375 8.0546875 C5.69243785 13.73259981 5.28071006 17.32997561 1.25 21.6875 C-2.65602776 24.01000299 -6.27284036 24.0872464 -10.75 23.6875 C-13.93459646 22.16757896 -16.48579966 20.40454041 -18.75 17.6875 C-20.51074588 12.40526236 -20.54625804 8.31064139 -18.125 3.375 C-12.71288772 -2.74923231 -7.33641368 -3.50147017 0 0 Z " fill="#8D4431" transform="translate(305.75,115.3125)"/>
<path d="M0 0 C3.4203866 1.17013226 3.91540482 1.87310723 6 5 C6.63195022 9.06253715 6.15822789 10.72948135 4.0625 14.3125 C1.19743079 17.38919364 -1.6405102 18.10636501 -5.7734375 18.29296875 C-9.90319623 17.74957944 -11.374126 16.23184493 -14 13 C-14.77152986 8.67943279 -14.52747866 6.80880061 -12.125 3.125 C-8.44140153 -0.55859847 -4.99984361 -0.39681298 0 0 Z " fill="#F9F8ED" transform="translate(303,175)"/>
<path d="M0 0 C3.63632265 1.50774354 4.69776827 3.66602435 6.5625 7.0625 C8.32817673 11.47669183 8.10381516 16.95137087 6.9375 21.5 C5.5625 23.0625 5.5625 23.0625 2.6875 24.0625 C-0.4375 24.0625 -0.4375 24.0625 -2.75 22.375 C-5.70624911 18.32384381 -5.6201199 14.43559216 -5.6875 9.5 C-5.71328125 8.36433594 -5.7390625 7.22867188 -5.765625 6.05859375 C-5.4375 3.0625 -5.4375 3.0625 -4.07421875 1.1640625 C-2.4375 0.0625 -2.4375 0.0625 0 0 Z " fill="#8D4736" transform="translate(256.4375,229.9375)"/>
<path d="M0 0 C1.65 0.33 3.3 0.66 5 1 C5.13277344 2.20398438 5.26554688 3.40796875 5.40234375 4.6484375 C5.5805302 6.22398085 5.7589265 7.79950047 5.9375 9.375 C6.02451172 10.1690625 6.11152344 10.963125 6.20117188 11.78125 C6.6038935 16.02255001 6.6038935 16.02255001 8 20 C8.66386719 18.9171875 9.32773438 17.834375 10.01171875 16.71875 C10.90271671 15.31191112 11.79469509 13.90569284 12.6875 12.5 C13.12255859 11.78457031 13.55761719 11.06914062 14.00585938 10.33203125 C15.24451382 8.40523544 16.41304227 6.6529614 18 5 C20.83203125 4.53125 20.83203125 4.53125 23 5 C17.65150813 13.88904283 11.57464175 22.13959965 5.24414062 30.34716797 C4.23856696 31.68306548 3.30273662 33.07128087 2.390625 34.47265625 C1.93171875 34.97667969 1.4728125 35.48070312 1 36 C-0.32 36 -1.64 36 -3 36 C-1.97070869 32.99790034 -1.12707152 31.12941169 1.12109375 28.83984375 C3.66616351 24.99313748 3.04977315 22.07612858 2.3125 17.75 C2.0923951 16.23568476 1.87234257 14.72136191 1.65234375 13.20703125 C1.53874512 12.48338379 1.42514648 11.75973633 1.30810547 11.01416016 C0.92282637 8.49549727 0.637708 5.97162179 0.375 3.4375 C0.25125 2.303125 0.1275 1.16875 0 0 Z " fill="#F2EFE5" transform="translate(237,362)"/>
<path d="M0 0 C4.13418632 0.75934034 6.67363169 2.15184436 9.0625 5.5625 C11.11605511 11.13094157 12.25908133 16.62137535 12.0625 22.5625 C10.7425 22.8925 9.4225 23.2225 8.0625 23.5625 C7.79695313 22.43070312 7.53140625 21.29890625 7.2578125 20.1328125 C6.9014156 18.65095168 6.54462424 17.1691857 6.1875 15.6875 C6.01347656 14.94113281 5.83945312 14.19476563 5.66015625 13.42578125 C4.67326121 9.07366329 4.67326121 9.07366329 2.0625 5.5625 C-1.26664611 5.13750262 -3.13191575 4.96480846 -5.875 7 C-7.5179608 10.96243487 -6.62074614 14.41566949 -5.9375 18.5625 C-5.74403451 20.08258598 -5.55607983 21.60338889 -5.375 23.125 C-5.230625 24.259375 -5.08625 25.39375 -4.9375 26.5625 C-6.2575 26.5625 -7.5775 26.5625 -8.9375 26.5625 C-9.61261172 23.85602533 -10.27777341 21.14772815 -10.9375 18.4375 C-11.12828125 17.67695313 -11.3190625 16.91640625 -11.515625 16.1328125 C-12.5502252 11.84661166 -13.1647711 8.00849099 -12.9375 3.5625 C-11.8546875 3.93375 -11.8546875 3.93375 -10.75 4.3125 C-6.14500687 4.72183272 -4.50409275 0.86248585 0 0 Z " fill="#F1EEE5" transform="translate(302.9375,363.4375)"/>
<path d="M0 0 C2.69990662 1.79993774 4.5418865 3.083773 6 6 C6.40616229 9.65546065 6.21434253 11.58917682 4.5 14.875 C1.47262543 17.44826838 -0.20725837 17.75544202 -4.09375 17.47265625 C-6 17 -6 17 -8.5 15.0625 C-10.50918237 10.96041933 -10.84758838 7.48875885 -10 3 C-7.25336657 -0.48611166 -4.24872854 -0.60696122 0 0 Z " fill="#57274F" transform="translate(332,359)"/>
<path d="M0 0 C2.4375 1.4375 2.4375 1.4375 4 4 C4.66005013 8.08781045 4.48656025 11.67006864 3.0625 15.5625 C-0.36982333 17.95472535 -3.97296407 17.7124179 -8 17 C-10.0625 15.5625 -10.0625 15.5625 -11 13 C-11.62304044 8.64670464 -11.7644591 5.25371292 -9.4375 1.4375 C-6.04481874 -0.56331202 -3.87285839 -0.55326548 0 0 Z " fill="#6E3444" transform="translate(276,371)"/>
<path d="M0 0 C1.32 0 2.64 0 4 0 C3.42133149 4.26941071 2.39736392 7.87456091 0.71484375 11.8359375 C0.26689453 12.89941406 -0.18105469 13.96289062 -0.64257812 15.05859375 C-1.11115234 16.15300781 -1.57972656 17.24742187 -2.0625 18.375 C-2.53494141 19.49261719 -3.00738281 20.61023438 -3.49414062 21.76171875 C-4.6570082 24.51031485 -5.82578186 27.25623832 -7 30 C-8.32 30 -9.64 30 -11 30 C-10.34695118 26.10982879 -9.19461184 22.69556088 -7.71484375 19.04296875 C-7.26689453 17.93115234 -6.81894531 16.81933594 -6.35742188 15.67382812 C-5.88884766 14.52333984 -5.42027344 13.37285156 -4.9375 12.1875 C-4.46505859 11.01767578 -3.99261719 9.84785156 -3.50585938 8.64257812 C-2.34111284 5.76012457 -1.17236766 2.87936035 0 0 Z " fill="#F3EFE4" transform="translate(233,352)"/>
<path d="M0 0 C1.32 0.33 2.64 0.66 4 1 C2.51991304 6.00113594 0.3681664 10.32915597 -2.125 14.875 C-2.49753906 15.56335938 -2.87007812 16.25171875 -3.25390625 16.9609375 C-4.16499526 18.64294798 -5.08190315 20.32180436 -6 22 C-7.32 21.67 -8.64 21.34 -10 21 C-8.51991304 15.99886406 -6.3681664 11.67084403 -3.875 7.125 C-3.50246094 6.43664062 -3.12992188 5.74828125 -2.74609375 5.0390625 C-1.83500474 3.35705202 -0.91809685 1.67819564 0 0 Z " fill="#F2EEE2" transform="translate(221,355)"/>
<path d="M0 0 C1.98 0.495 1.98 0.495 4 1 C3.67 2.32 3.34 3.64 3 5 C1.68 4.67 0.36 4.34 -1 4 C-0.67 2.68 -0.34 1.36 0 0 Z " fill="#F8F7EB" transform="translate(225,347)"/>
</svg>
